<?xml version="1.0" encoding="utf-8"?>
<!-- Generator: Adobe Illustrator 25.2.1, SVG Export Plug-In . SVG Version: 6.00 Build 0)  -->
<svg version="1.1" id="Layer_1" xmlns="http://www.w3.org/2000/svg" xmlns:xlink="http://www.w3.org/1999/xlink" x="0px" y="0px"
	 viewBox="0 0 397 157.7" style="enable-background:new 0 0 397 157.7;" xml:space="preserve">
<style type="text/css">
	.st0{fill:#2175B3;}
</style>
<g id="VANCOUVER">
	<g>
		<g>
			<path class="st0" d="M397,35.4V23c-2,0-9.3-0.5-13.8,6.7l-3.7-7.3l-9.9,4.1c3.3,9.5,3.3,10.3,3.3,21v45h14.3V40.7
				C389.9,35.7,395,35.4,397,35.4 M350.5,50.2h-11c0-7.4,0.5-16.7,6.1-16.7C350.7,33.6,350.5,43.2,350.5,50.2 M364.5,61.2
				c0-19.4,0.7-38.5-19-38.5c-17.7,0-20.5,17.1-20.5,34.6c0,20.6,5.2,36.7,25.8,36.7c7,0,11.6-2.2,11.6-2.2V81.3
				c0,0-2.9,1.9-8.5,1.9c-12.2,0-14.6-9.8-14.6-22C339.4,61.2,364.5,61.2,364.5,61.2z M321.8,24.3h-13l-4.5,45.2
				c-0.4,3.7-0.5,8.9-0.5,8.9H303c0,0-0.1-5.2-0.5-8.9l-4.2-45.2h-15.3l11,68.2h17.2L321.8,24.3z M275.5,24.3h-14.1V76
				c-0.7,2-2,5.7-5.7,5.7c-2.8,0-3.2-2.8-3.2-7.1V24.3h-14.3v53.2c0,9.5,4,16.5,13,16.5c8.1,0,11.9-4.4,14-6.9l2.8,5.4h7.5
				L275.5,24.3L275.5,24.3z M214.7,58.2c0,17.9-0.4,25.4-5.5,25.4c-5.2,0-5.5-7.8-5.5-25.3c0-17.1,0.3-24.7,5.5-24.7
				C214.2,33.6,214.7,41,214.7,58.2 M230.2,58.4c0-20.9-2.6-35.7-21.2-35.7c-18.4,0-21,15.1-21,35.6c0,21.4,2.8,36,21,36
				C227.5,94.3,230.2,79.5,230.2,58.4 M183.4,89.4l-2.2-9.5c0,0-1.9,2.8-5.4,2.8c-8.2,0-8.9-16-8.9-24.2c0-10.2,0.4-24.3,10-24.3
				c3.6,0,5.4,1.7,5.4,1.7V25.1c0,0-3.3-2.4-9-2.4C155.9,22.8,152,39,152,57.4c0,17.2,4,36.7,19.8,36.7
				C179.4,94.1,183.4,89.4,183.4,89.4 M144,92.6v-53c0-9.5-3.8-16.5-13-16.5c-7.9,0-11.9,4.4-14,6.7l-3.7-7.3l-10,4.1
				c3.4,9.5,3.4,10.3,3.4,21v45h14.1V40.9c0.7-2,2.2-5.7,5.7-5.7c3,0,3.2,2.8,3.2,7.3v50.1H144z M81.8,67.7c0,7.7,0.4,14.6-4.9,14.6
				c-3.8,0-4.8-3.8-4.8-8.9c0-10.7,2.4-12.7,9.7-14.6V67.7z M99.4,90.4C96.1,80.9,96,80.1,96,69.5V48.8c0-17.9-3.7-26-20.4-26
				c-7.7,0-13.6,2.4-13.6,2.4v11c0,0,5.6-2.4,9.5-2.4c9.7,0,10.2,4.8,10.2,14.4c-10.6,2.2-23.9,4.1-23.9,25.8
				c0,13.2,6.3,20.2,15.3,20.2c8.9,0,11.9-5.5,12.6-7l4,7.5L99.4,90.4z M57.5,0H44.8l-7.7,69.4c-0.4,3.7-0.7,8.9-0.7,8.9H36
				c0,0-0.3-5.2-0.7-8.9L28.7,0H12.4l13.1,92.6h18.9L57.5,0z"/>
		</g>
	</g>
</g>
<g id="WASHINGTON">
	<path class="st0" d="M378.4,118.2v-11.3l7,11.3h3.5v-17.3h-3.2v11.5l-7.1-11.5h-3.4v17.3H378.4z M356.7,105.1c0.9-1,2-1.5,3.5-1.5
		c1.4,0,2.6,0.5,3.5,1.5c0.9,1,1.3,2.5,1.3,4.4c0,2-0.4,3.5-1.3,4.5c-0.9,1-2,1.5-3.4,1.5s-2.5-0.5-3.4-1.5c-0.9-1-1.4-2.5-1.4-4.5
		C355.4,107.5,355.8,106,356.7,105.1 M354.1,116.1c1.5,1.6,3.6,2.4,6.1,2.4c2.5,0,4.6-0.8,6.1-2.4c1.5-1.6,2.3-3.8,2.3-6.6
		c0-2.8-0.8-5-2.3-6.6c-1.5-1.6-3.6-2.4-6.1-2.4c-1.4,0-2.6,0.2-3.7,0.7c-0.8,0.3-1.6,0.9-2.2,1.6c-0.7,0.7-1.2,1.5-1.6,2.4
		c-0.5,1.2-0.8,2.7-0.8,4.4C351.8,112.4,352.5,114.6,354.1,116.1 M341.7,118.2v-14.4h5.1v-2.9h-13.7v2.9h5.1v14.4H341.7z
		 M323.7,111.8v2.2c-0.5,0.4-1.2,0.8-1.9,1c-0.7,0.3-1.5,0.4-2.2,0.4c-1.5,0-2.7-0.5-3.6-1.5c-0.9-1-1.4-2.6-1.4-4.6
		c0-1.9,0.5-3.3,1.3-4.3c0.9-1,2.1-1.4,3.6-1.4c1,0,1.9,0.2,2.5,0.7c0.7,0.5,1.1,1.2,1.4,2l3.5-0.7c-0.3-1.6-1.1-2.8-2.3-3.7
		c-1.2-0.9-2.9-1.3-5-1.3c-1.7,0-3,0.3-4.1,0.9c-1.5,0.7-2.6,1.8-3.3,3.2c-0.8,1.4-1.1,3-1.1,4.8c0,1.7,0.3,3.2,1,4.6
		c0.7,1.4,1.7,2.5,3,3.3c1.3,0.8,2.9,1.1,4.7,1.1c1.4,0,2.8-0.3,4.2-0.8c1.4-0.5,2.5-1.2,3.2-1.9v-6.9h-7.5v2.9L323.7,111.8
		L323.7,111.8z M293.6,118.2v-11.3l7,11.3h3.5v-17.3h-3.2v11.5l-7.1-11.5h-3.4v17.3H293.6z M283.1,100.9h-3.5v17.3h3.5V100.9z
		 M261.9,118.2v-7.6h6.9v7.6h3.5v-17.3h-3.5v6.8h-6.9v-6.8h-3.5v17.3H261.9z M239.6,117c1.2,1,2.8,1.5,5,1.5c1.5,0,2.8-0.2,3.8-0.6
		c1-0.4,1.8-1.1,2.3-1.9c0.5-0.9,0.8-1.8,0.8-2.8c0-1.1-0.2-2-0.7-2.8c-0.5-0.7-1.1-1.3-1.9-1.8c-0.8-0.4-2.1-0.8-3.8-1.2
		c-1.7-0.4-2.8-0.8-3.2-1.2c-0.3-0.3-0.5-0.6-0.5-1c0-0.4,0.2-0.8,0.5-1.1c0.6-0.4,1.4-0.6,2.4-0.6c1,0,1.7,0.2,2.2,0.6
		c0.5,0.4,0.8,1,1,1.9l3.5-0.2c-0.1-1.6-0.6-2.9-1.7-3.8c-1.1-1-2.7-1.4-4.9-1.4c-1.3,0-2.5,0.2-3.4,0.6c-0.9,0.4-1.7,1-2.2,1.7
		c-0.5,0.8-0.7,1.6-0.7,2.5c0,1.4,0.5,2.5,1.6,3.5c0.8,0.7,2.1,1.3,3.9,1.7c1.5,0.4,2.4,0.6,2.8,0.8c0.6,0.2,1,0.5,1.3,0.7
		c0.2,0.3,0.4,0.6,0.4,1c0,0.6-0.3,1.2-0.8,1.7c-0.6,0.5-1.4,0.7-2.5,0.7c-1.1,0-1.9-0.3-2.5-0.8c-0.6-0.5-1-1.4-1.2-2.5l-3.4,0.3
		C237.7,114.5,238.5,116,239.6,117 M221.5,111.3l2.3-6.4l2.4,6.4H221.5z M225.8,100.9h-3.7l-6.7,17.3h3.7l1.4-3.9h6.9l1.5,3.9h3.8
		L225.8,100.9z M198,118.2l3.4-12.9l3.4,12.9h3.7l4.2-17.3h-3.5l-2.7,12.1l-3-12.1h-4.1l-3.2,11.9l-2.6-11.9h-3.6l4.1,17.3H198z"/>
</g>
<g id="CITY_OF">
	<path class="st0" d="M132.3,12.7V7.4h5.2V5.3h-5.2V2.4h6V0.3h-8.5v12.3H132.3z M118.4,3.3c0.6-0.7,1.5-1.1,2.5-1.1
		c1,0,1.9,0.4,2.5,1c0.6,0.7,0.9,1.7,0.9,3.2c0,1.4-0.3,2.5-1,3.2c-0.6,0.7-1.4,1.1-2.5,1.1c-1,0-1.8-0.4-2.5-1.1
		c-0.6-0.7-1-1.8-1-3.2C117.4,5.1,117.7,4,118.4,3.3 M116.5,11.2c1.1,1.1,2.5,1.7,4.4,1.7c1.8,0,3.3-0.6,4.3-1.7
		c1.1-1.1,1.6-2.7,1.6-4.7c0-2-0.5-3.6-1.6-4.7s-2.5-1.7-4.4-1.7c-1,0-1.9,0.2-2.7,0.5c-0.6,0.2-1.1,0.6-1.6,1.1
		c-0.5,0.5-0.9,1.1-1.1,1.7c-0.4,0.8-0.6,1.9-0.6,3.2C114.8,8.5,115.4,10.1,116.5,11.2 M103,12.7V7.5l4.5-7.2h-2.9l-2.8,4.9
		l-2.9-4.9H96l4.5,7.2v5.2H103z M91,12.7V2.4h3.7V0.3h-9.8v2.1h3.7v10.3H91z M82.3,0.3h-2.5v12.3h2.5V0.3z M73.3,10.1
		c-0.5,0.4-1,0.6-1.7,0.6c-0.9,0-1.6-0.3-2.2-1c-0.6-0.7-0.8-1.8-0.8-3.3c0-1.5,0.3-2.5,0.8-3.2c0.6-0.7,1.3-1,2.2-1
		c0.7,0,1.2,0.2,1.7,0.6c0.5,0.4,0.8,0.9,0.9,1.5l2.5-0.6c-0.3-1-0.7-1.7-1.3-2.3c-0.9-0.9-2.2-1.3-3.7-1.3c-1.7,0-3.1,0.6-4.2,1.7
		c-1.1,1.1-1.6,2.7-1.6,4.8c0,1.9,0.5,3.5,1.6,4.6s2.4,1.7,4,1.7c1.3,0,2.4-0.3,3.3-1c0.9-0.7,1.5-1.7,1.9-3l-2.4-0.8
		C74.1,9,73.7,9.7,73.3,10.1"/>
</g>
<g id="WAVES">
	<path class="st0" d="M394.6,133.2c0,0-103.3,12.6-173.6-2.8C55.1,94,3,132.9,3,132.9s42.2-24.7,157-5.4
		c43.7,7.3,66.6,17.8,130.4,17.1C346.4,144,394.6,133.2,394.6,133.2"/>
	<path class="st0" d="M394.6,146.2c0,0-103.3,12.6-173.6-2.8C55.1,107,3,146,3,146s42.2-24.7,157-5.4c43.7,7.3,66.6,17.8,130.4,17.1
		C346.4,157.1,394.6,146.2,394.6,146.2"/>
</g>
</svg>
